<?xml version="1.0" encoding="UTF-8"?>
<svg width="473px" height="473px" viewBox="0 0 473 473" version="1.1" xmlns="http://www.w3.org/2000/svg" xmlns:xlink="http://www.w3.org/1999/xlink">
    <title>Group Copy</title>
    <defs>
        <circle id="path-1" cx="236.37073" cy="235.79654" r="235.5"></circle>
    </defs>
    <g id="Page-1" stroke="none" stroke-width="1" fill="none" fill-rule="evenodd">
        <g id="Group-Copy" transform="translate(0.129270, 0.703460)">
            <mask id="mask-2" fill="white">
                <use xlink:href="#path-1"></use>
            </mask>
            <use id="Oval-Copy-2" fill="#ED1249" xlink:href="#path-1"></use>
            <path d="M98.412783,293.781519 C99.132416,293.781519 99.9420033,293.512074 100.841545,292.973186 C119.192188,278.962074 142.130493,267.106519 169.656458,257.406519 C195.743157,248.065778 222.009765,242.048186 248.456281,239.353741 C250.075455,239.174111 251.694629,239.039389 253.313804,238.949574 C254.932978,238.85976 256.462199,238.814852 257.901465,238.814852 C269.955319,238.814852 279.400503,241.150037 286.237017,245.820408 C292.713715,250.131519 295.952064,255.430593 295.952064,261.71763 C295.952064,263.693556 295.322385,266.208371 294.063027,269.262074 C292.443853,273.034297 290.959609,275.369482 289.610297,276.26763 C288.260985,277.165778 287.586329,277.974111 287.586329,278.69263 C287.586329,279.231519 287.946146,279.500963 288.665779,279.500963 C289.56532,279.500963 290.734724,279.051889 292.17399,278.153741 C295.412339,276.896334 297.661192,274.471334 298.92055,270.878741 C299.640183,268.723186 300,266.388 300,263.873186 C300,255.430593 295.052523,248.335223 285.157568,242.587074 C280.300044,239.713 274.722888,237.781982 268.426099,236.794019 C262.129309,235.806056 255.112887,235.491704 247.376831,235.850963 C237.841693,236.389852 227.272082,237.916704 215.667998,240.431519 C204.063915,242.946334 191.245451,246.359297 177.212605,250.670408 C157.242787,256.957445 140.601272,263.154667 127.28806,269.262074 C126.208611,269.621334 125.309069,269.980593 124.589436,270.339852 C123.869803,270.699111 123.15017,270.878741 122.430537,270.878741 C121.171179,270.878741 120.5415,270.160223 120.5415,268.723186 C120.5415,266.926889 121.441042,264.771334 123.240124,262.256519 C129.536914,252.01763 135.069093,242.452352 139.836662,233.560686 C144.604231,224.669019 148.787099,216.271334 152.385264,208.36763 C153.464714,207.110223 154.409232,205.987537 155.218819,204.999574 C156.028407,204.011611 156.793017,203.158371 157.51265,202.439852 C158.232283,198.66763 157.062879,196.781519 154.004439,196.781519 C153.104897,196.781519 152.115402,197.050963 151.035952,197.589852 C141.86063,201.900963 131.830744,207.963463 120.946294,215.777352 C110.061843,223.591241 98.3228288,233.156519 85.7292499,244.473186 C85.0096168,245.191704 84.1100755,245.550963 83.0306258,245.550963 C81.4114514,245.550963 80.6018642,244.563 80.6018642,242.587074 C80.6018642,241.150037 81.141589,239.623186 82.2210386,238.006519 C86.1790206,230.282445 89.1924841,224.085223 91.2614292,219.414852 C93.3303743,214.744482 94.3648469,211.511148 94.3648469,209.714852 C94.3648469,207.559297 93.4653055,206.212074 91.6662228,205.673186 C86.6287912,204.056519 78.4429649,206.750963 67.1087439,213.756519 C51.6366326,223.276889 38.5033289,233.605593 27.7088327,244.74263 C26.629383,245.820408 25.6398876,246.359297 24.7403462,246.359297 C22.7613552,246.359297 22.9412635,244.293556 25.280071,240.162074 C30.6773191,230.462074 36.8841545,221.570408 43.900577,213.487074 C50.0174582,206.12226 53.7055777,202.080593 54.9649356,201.362074 C56.4042018,200.284297 56.7640183,199.475963 56.0443853,198.937074 C55.1448439,198.398186 53.7055777,198.532908 51.7265868,199.341241 C49.7475958,200.149574 48.2183755,201.002815 47.1389259,201.900963 C44.2603935,204.775037 40.7521823,208.816704 36.6142921,214.025963 C32.4764018,219.235223 27.7987868,225.612074 22.581447,233.156519 C17.3641071,240.700963 12.7764462,247.481982 8.81846427,253.499574 C4.86048232,259.517167 1.62213345,264.950963 -0.896582335,269.800963 C-2.69566504,272.675037 -3.68516053,274.740778 -3.8650688,275.998186 C-4.04497707,276.896334 -4.04497707,278.063926 -3.8650688,279.500963 C-3.68516053,280.399111 -3.32534399,280.758371 -2.78561917,280.578741 C-2.42580263,280.219482 -1.70616955,279.770408 -0.626719929,279.231519 C0.452729694,278.69263 1.98194999,278.063926 3.96094097,277.345408 C7.73901465,275.908371 9.89791389,274.740778 10.4376387,273.84263 C13.4960793,269.351889 16.2846575,265.444945 18.8033733,262.121797 C21.3220891,258.798648 23.5709424,256.059297 25.5499334,253.903741 C33.1060808,245.281519 42.1014943,236.659297 52.536174,228.037074 C57.213789,223.905593 61.171771,220.717167 64.4101198,218.471797 C67.6484687,216.226426 70.1671845,214.654667 71.9662672,213.756519 C73.5854416,213.21763 74.7548454,212.948186 75.4744785,212.948186 C78.1731025,212.948186 79.5224146,214.564852 79.5224146,217.798186 C79.5224146,219.594482 79.162598,221.300963 78.4429649,222.91763 C76.2840657,229.743556 73.2706022,236.794019 69.4025743,244.069019 C65.5345465,251.344019 60.9019086,258.933371 55.5046605,266.837074 C54.7850274,267.735223 55.0099127,268.813 56.1793165,270.070408 C57.3487202,271.327815 58.4731469,271.687074 59.5525965,271.148186 C60.4521379,270.609297 61.6215416,270.0255 63.0608078,269.396797 C64.500074,268.768093 66.3891108,267.914852 68.7279183,266.837074 C70.7069093,266.118556 72.1911525,265.400037 73.180648,264.681519 C74.1701435,263.963 74.8447995,263.424111 75.2046161,263.064852 C82.7607634,252.287074 100.031957,236.120408 127.018198,214.564852 C129.177097,212.948186 130.97618,212.139852 132.415446,212.139852 C134.934162,212.139852 136.19352,213.666704 136.19352,216.720408 C136.19352,219.055593 135.563841,221.480593 134.304483,223.995408 C128.007693,240.521334 117.48306,257.855593 102.730581,275.998186 C102.010948,278.513 101.920994,280.668556 102.460719,282.464852 L95.9840213,288.931519 C95.4442965,289.470408 95.1744341,290.099111 95.1744341,290.81763 C95.1744341,292.793556 96.2538837,293.781519 98.412783,293.781519 Z M246.086034,352.962339 C248.963006,352.962339 251.660167,352.737005 254.177517,352.286339 C256.694867,351.835672 259.212217,351.159672 261.729567,350.258339 C266.764268,348.455672 272.293448,345.571405 278.317107,341.605539 C284.340766,337.639672 291.128621,332.592205 298.680672,326.463139 C306.772154,319.613005 313.73982,312.762872 319.583668,305.912739 C325.427517,299.062605 330.417265,292.573005 334.552911,286.443939 C335.272154,285.182072 335.631776,284.190605 335.631776,283.469539 C335.631776,283.109005 335.54187,282.838605 335.36206,282.658339 C334.822627,282.658339 333.743763,283.559672 332.125466,285.362339 C327.810009,290.950605 322.730356,296.899405 316.886507,303.208739 C311.042659,309.518072 304.434615,315.647139 297.062375,321.595939 C281.778463,333.854072 269.371523,341.605539 259.841555,344.850339 C253.548179,347.013539 247.164899,348.095139 240.691713,348.095139 C234.218526,348.095139 229.093921,346.607939 225.317895,343.633539 C221.54187,340.659139 219.653858,336.107405 219.653858,329.978339 L219.653858,327.274339 L219.653858,327.274339 C219.653858,326.553272 219.743763,325.742072 219.923574,324.840739 C220.642817,319.613005 222.081302,313.213539 224.239031,305.642339 C226.39676,298.071139 228.959063,290.094339 231.92594,281.711939 C234.892817,273.329539 238.174362,265.037272 241.770577,256.835139 C245.366791,248.633005 249.052911,241.377272 252.828937,235.067939 C257.683826,226.955939 262.673574,218.979139 267.798179,211.137539 C272.922785,203.295939 278.092343,195.319139 283.306854,187.207139 C283.486665,186.846605 283.306854,186.215672 282.767422,185.314339 C282.22799,184.413005 281.598653,183.962339 280.87941,183.962339 C280.160167,183.962339 279.620735,184.142605 279.261113,184.503139 C277.822627,186.305805 275.485088,187.477539 272.248495,188.018339 C271.888873,188.198605 270.180672,188.108472 267.123889,187.747939 C264.96616,187.026872 262.808432,186.441005 260.650703,185.990339 C258.492974,185.539672 256.335246,185.314339 254.177517,185.314339 C252.199599,185.314339 250.266634,185.539672 248.378621,185.990339 C246.490608,186.441005 244.737454,186.936739 243.119157,187.477539 C236.106539,190.361805 228.554489,194.643139 220.463006,200.321539 C212.371523,205.999939 203.740608,213.435939 194.570261,222.629539 C174.611271,242.639139 164.631776,259.043405 164.631776,271.842339 C164.631776,278.151672 166.87941,281.306339 171.374678,281.306339 C173.172785,281.306339 175.240608,280.585272 177.578148,279.143139 C188.906224,272.473272 202.481933,262.468472 218.305277,249.128739 C226.216949,242.278605 233.184615,235.969272 239.208274,230.200739 C245.231933,224.432205 250.401492,218.934072 254.716949,213.706339 C255.076571,213.345805 255.346287,213.165539 255.526097,213.165539 C256.964583,213.165539 257.054489,214.157005 255.795813,216.139939 C252.739031,220.826872 249.727201,225.964472 246.760325,231.552739 C243.793448,237.141005 240.781618,243.179939 237.724836,249.669539 C235.207485,255.077539 232.690135,261.296739 230.172785,268.327139 C227.655435,275.357539 225.317895,282.433005 223.160167,289.553539 C221.002438,296.674072 219.249284,303.389005 217.900703,309.698339 C216.552123,316.007672 215.787927,321.055139 215.608116,324.840739 C215.428306,329.527672 216.01269,333.718872 217.361271,337.414339 C218.709851,341.109805 221.092343,343.949005 224.508747,345.931939 C227.385719,347.914872 230.622312,349.582339 234.218526,350.934339 C237.814741,352.286339 241.770577,352.962339 246.086034,352.962339 Z M185.081721,268.711973 C181.820397,268.711973 180.189735,266.548272 180.189735,262.22087 C180.189735,260.057169 180.552104,257.983622 181.276843,256.000229 C183.813428,250.23036 187.210641,244.190028 191.46848,237.879233 C195.72632,231.568438 200.935379,224.987181 207.095658,218.135461 C220.140954,203.891095 230.921442,195.687062 239.437122,193.523361 C241.611338,192.982436 243.694961,192.711973 245.687993,192.711973 C249.311686,192.711973 252.301233,193.568438 254.656634,195.281368 C257.012034,196.994298 258.189735,198.842459 258.189735,200.825852 C258.189735,201.547086 257.917958,202.178165 257.374404,202.71909 C244.510292,218.045306 232.461512,231.07259 221.228062,241.800941 C209.994613,252.529292 199.304717,261.048865 189.158376,267.35966 C187.708899,268.261202 186.350014,268.711973 185.081721,268.711973 Z M354.29774,284 C364.726992,284 381.629571,274.492007 405.005479,255.476021 L406.893533,253.592362 C406.713718,253.412966 406.623811,253.323268 406.623811,253.323268 C406.623811,253.143872 406.533904,252.964476 406.354089,252.78508 C406.174274,252.964476 405.859599,253.143872 405.410062,253.323268 C404.960525,253.502664 404.466035,253.771758 403.926591,254.130551 C383.967162,269.199822 369.581988,276.734458 360.771069,276.734458 C355.916073,276.734458 353.488574,274.402309 353.488574,269.738011 C353.488574,263.279751 357.894034,252.067496 366.704953,236.101243 C370.481061,229.463588 374.077355,223.498668 377.493834,218.206483 C380.910312,212.914298 384.146977,208.384547 387.203826,204.617229 C387.383641,204.437833 387.473548,203.989343 387.473548,203.271758 C387.473548,201.83659 386.664382,200.44627 385.04605,199.100799 C383.427718,197.755329 382.079108,197.172291 381.00022,197.351687 C374.706706,198.966252 371.20032,200.222025 370.481061,201.119005 C364.547177,201.657194 353.30876,208.474245 336.76581,221.57016 C329.932852,227.310835 323.279709,233.05151 316.806381,238.792185 C310.333052,244.53286 304.219353,250.273535 298.465284,256.01421 C295.947878,258.525755 293.969917,260.58881 292.531399,262.203375 C291.092882,263.81794 289.924087,264.984014 289.025013,265.701599 C299.094635,247.403197 308.804627,230.091474 318.154991,213.76643 C327.505354,197.441385 336.675902,181.744227 345.666636,166.674956 C348.543671,166.854352 351.510613,166.988899 354.567462,167.078597 C357.624312,167.168295 360.681161,167.213144 363.738011,167.213144 C433.865734,167.213144 505.072346,150.260213 577.357846,116.354352 C597.13746,107.205151 611.972171,96.0825933 621.861978,82.9866785 C631.032526,71.1465364 635.617801,58.5888099 635.617801,45.3134991 C635.617801,27.9120782 628.245399,12.9325044 613.500595,0.374777975 C598.036533,-12.5417407 578.796363,-19 555.780085,-19 C541.934355,-19 527.998717,-16.4884547 513.973172,-11.4653641 C487.72023,-2.31616341 461.961777,13.6949378 436.697816,36.5679396 C411.433854,59.4409414 386.214845,89.80373 361.040791,127.656306 C343.418953,131.423623 330.202574,137.971581 321.391655,147.300178 C320.852211,148.017762 320.402674,148.735346 320.043045,149.452931 C319.683415,150.170515 319.503601,151.067496 319.503601,152.143872 C319.503601,154.655417 320.492581,157.256661 322.470543,159.947602 C324.448504,162.638544 326.696188,164.253108 329.213593,164.791297 C330.831925,165.150089 332.315396,165.419183 333.664006,165.598579 C335.012616,165.777975 336.136458,165.957371 337.035532,166.136767 C324.088875,188.381883 312.625689,208.69849 302.645975,227.08659 C292.66626,245.474689 284.08011,262.293073 276.887523,277.541741 C276.707708,278.079929 276.617801,278.797513 276.617801,279.694494 C276.617801,282.564831 277.337059,284 278.775577,284 C279.315021,284 279.764557,283.55151 280.124187,282.654529 C281.742519,280.501776 282.7315,279.784192 283.091129,280.501776 C291.182789,270.814387 302.780836,258.705151 317.885269,244.174067 C335.866736,226.952043 349.892281,215.650089 359.961903,210.268206 C361.939864,209.012433 363.738011,208.384547 365.356343,208.384547 C368.053563,208.384547 369.402173,209.64032 369.402173,212.151865 C369.402173,213.587034 369.042544,214.753108 368.323285,215.650089 C352.499594,236.460036 342.879509,253.951155 339.46303,268.123446 C338.563956,272.249556 340.182288,275.927176 344.318026,279.156306 C347.734505,282.385435 351.061076,284 354.29774,284 Z M369.787248,162.243723 C366.198487,162.243723 362.744304,162.153999 359.4247,161.97455 C356.105096,161.795102 352.92007,161.615653 349.869623,161.436204 C376.06758,116.932946 402.983289,80.5497381 430.61675,52.2865802 C458.250211,24.0234223 487.139738,3.61114164 517.285332,-8.95026187 C529.666558,-14.1542719 542.40666,-16.7562769 555.505639,-16.7562769 C575.602701,-16.7562769 593.187631,-11.3728183 608.260428,-0.605900964 C623.333225,9.62267046 630.869623,22.5429712 630.869623,38.1550013 C630.869623,62.021668 612.208065,84.8116429 574.884949,106.524926 C557.300019,116.753498 539.087056,125.54648 520.24606,132.903873 C501.405064,140.261267 481.846316,146.36252 461.569815,151.207633 C445.599828,154.796605 430.033576,157.533197 414.87106,159.417407 C399.708544,161.301618 384.680607,162.243723 369.787248,162.243723 Z M341.253969,160.173434 C340.726838,160.173434 339.716502,160.083579 338.222962,159.903869 C336.729422,159.724159 334.752677,159.454594 332.292729,159.095173 C328.427096,158.556043 326.494279,156.758941 326.494279,153.703869 C326.494279,151.727057 327.197122,150.019811 328.602807,148.58213 C332.117018,144.448797 336.465856,140.719811 341.649318,137.395173 C346.832781,134.070536 353.114434,131.329956 360.494279,129.173434 C357.331489,134.205318 354.12477,139.327057 350.874124,144.538652 C347.623478,149.750246 344.41676,154.96184 341.253969,160.173434 Z" id="mah-copy" fill="#FFFFFF" fill-rule="nonzero" mask="url(#mask-2)" transform="translate(315.808900, 166.981169) rotate(-4.000000) translate(-315.808900, -166.981169) "></path>
        </g>
    </g>
</svg>