<?xml version="1.0" encoding="UTF-8"?>
<svg width="623px" height="394px" viewBox="0 0 623 394" version="1.1" xmlns="http://www.w3.org/2000/svg" xmlns:xlink="http://www.w3.org/1999/xlink">
    <title>mah</title>
    <g id="Page-1" stroke="none" stroke-width="1" fill="none" fill-rule="evenodd">
        <g id="Group" transform="translate(-20.870730, -5.296540)" fill="#FFFFFF" fill-rule="nonzero">
            <path d="M115.412783,334.781519 C116.132416,334.781519 116.942003,334.512074 117.841545,333.973186 C136.192188,319.962074 159.130493,308.106519 186.656458,298.406519 C212.743157,289.065778 239.009765,283.048186 265.456281,280.353741 C267.075455,280.174111 268.694629,280.039389 270.313804,279.949574 C271.932978,279.85976 273.462199,279.814852 274.901465,279.814852 C286.955319,279.814852 296.400503,282.150037 303.237017,286.820408 C309.713715,291.131519 312.952064,296.430593 312.952064,302.71763 C312.952064,304.693556 312.322385,307.208371 311.063027,310.262074 C309.443853,314.034297 307.959609,316.369482 306.610297,317.26763 C305.260985,318.165778 304.586329,318.974111 304.586329,319.69263 C304.586329,320.231519 304.946146,320.500963 305.665779,320.500963 C306.56532,320.500963 307.734724,320.051889 309.17399,319.153741 C312.412339,317.896334 314.661192,315.471334 315.92055,311.878741 C316.640183,309.723186 317,307.388 317,304.873186 C317,296.430593 312.052523,289.335223 302.157568,283.587074 C297.300044,280.713 291.722888,278.781982 285.426099,277.794019 C279.129309,276.806056 272.112887,276.491704 264.376831,276.850963 C254.841693,277.389852 244.272082,278.916704 232.667998,281.431519 C221.063915,283.946334 208.245451,287.359297 194.212605,291.670408 C174.242787,297.957445 157.601272,304.154667 144.28806,310.262074 C143.208611,310.621334 142.309069,310.980593 141.589436,311.339852 C140.869803,311.699111 140.15017,311.878741 139.430537,311.878741 C138.171179,311.878741 137.5415,311.160223 137.5415,309.723186 C137.5415,307.926889 138.441042,305.771334 140.240124,303.256519 C146.536914,293.01763 152.069093,283.452352 156.836662,274.560686 C161.604231,265.669019 165.787099,257.271334 169.385264,249.36763 C170.464714,248.110223 171.409232,246.987537 172.218819,245.999574 C173.028407,245.011611 173.793017,244.158371 174.51265,243.439852 C175.232283,239.66763 174.062879,237.781519 171.004439,237.781519 C170.104897,237.781519 169.115402,238.050963 168.035952,238.589852 C158.86063,242.900963 148.830744,248.963463 137.946294,256.777352 C127.061843,264.591241 115.322829,274.156519 102.72925,285.473186 C102.009617,286.191704 101.110075,286.550963 100.030626,286.550963 C98.4114514,286.550963 97.6018642,285.563 97.6018642,283.587074 C97.6018642,282.150037 98.141589,280.623186 99.2210386,279.006519 C103.179021,271.282445 106.192484,265.085223 108.261429,260.414852 C110.330374,255.744482 111.364847,252.511148 111.364847,250.714852 C111.364847,248.559297 110.465306,247.212074 108.666223,246.673186 C103.628791,245.056519 95.4429649,247.750963 84.1087439,254.756519 C68.6366326,264.276889 55.5033289,274.605593 44.7088327,285.74263 C43.629383,286.820408 42.6398876,287.359297 41.7403462,287.359297 C39.7613552,287.359297 39.9412635,285.293556 42.280071,281.162074 C47.6773191,271.462074 53.8841545,262.570408 60.900577,254.487074 C67.0174582,247.12226 70.7055777,243.080593 71.9649356,242.362074 C73.4042018,241.284297 73.7640183,240.475963 73.0443853,239.937074 C72.1448439,239.398186 70.7055777,239.532908 68.7265868,240.341241 C66.7475958,241.149574 65.2183755,242.002815 64.1389259,242.900963 C61.2603935,245.775037 57.7521823,249.816704 53.6142921,255.025963 C49.4764018,260.235223 44.7987868,266.612074 39.581447,274.156519 C34.3641071,281.700963 29.7764462,288.481982 25.8184643,294.499574 C21.8604823,300.517167 18.6221335,305.950963 16.1034177,310.800963 C14.304335,313.675037 13.3148395,315.740778 13.1349312,316.998186 C12.9550229,317.896334 12.9550229,319.063926 13.1349312,320.500963 C13.3148395,321.399111 13.674656,321.758371 14.2143808,321.578741 C14.5741974,321.219482 15.2938304,320.770408 16.3732801,320.231519 C17.4527297,319.69263 18.98195,319.063926 20.960941,318.345408 C24.7390146,316.908371 26.8979139,315.740778 27.4376387,314.84263 C30.4960793,310.351889 33.2846575,306.444945 35.8033733,303.121797 C38.3220891,299.798648 40.5709424,297.059297 42.5499334,294.903741 C50.1060808,286.281519 59.1014943,277.659297 69.536174,269.037074 C74.213789,264.905593 78.171771,261.717167 81.4101198,259.471797 C84.6484687,257.226426 87.1671845,255.654667 88.9662672,254.756519 C90.5854416,254.21763 91.7548454,253.948186 92.4744785,253.948186 C95.1731025,253.948186 96.5224146,255.564852 96.5224146,258.798186 C96.5224146,260.594482 96.162598,262.300963 95.4429649,263.91763 C93.2840657,270.743556 90.2706022,277.794019 86.4025743,285.069019 C82.5345465,292.344019 77.9019086,299.933371 72.5046605,307.837074 C71.7850274,308.735223 72.0099127,309.813 73.1793165,311.070408 C74.3487202,312.327815 75.4731469,312.687074 76.5525965,312.148186 C77.4521379,311.609297 78.6215416,311.0255 80.0608078,310.396797 C81.500074,309.768093 83.3891108,308.914852 85.7279183,307.837074 C87.7069093,307.118556 89.1911525,306.400037 90.180648,305.681519 C91.1701435,304.963 91.8447995,304.424111 92.2046161,304.064852 C99.7607634,293.287074 117.031957,277.120408 144.018198,255.564852 C146.177097,253.948186 147.97618,253.139852 149.415446,253.139852 C151.934162,253.139852 153.19352,254.666704 153.19352,257.720408 C153.19352,260.055593 152.563841,262.480593 151.304483,264.995408 C145.007693,281.521334 134.48306,298.855593 119.730581,316.998186 C119.010948,319.513 118.920994,321.668556 119.460719,323.464852 L112.984021,329.931519 C112.444296,330.470408 112.174434,331.099111 112.174434,331.81763 C112.174434,333.793556 113.253884,334.781519 115.412783,334.781519 Z M263.086034,393.962339 C265.963006,393.962339 268.660167,393.737005 271.177517,393.286339 C273.694867,392.835672 276.212217,392.159672 278.729567,391.258339 C283.764268,389.455672 289.293448,386.571405 295.317107,382.605539 C301.340766,378.639672 308.128621,373.592205 315.680672,367.463139 C323.772154,360.613005 330.73982,353.762872 336.583668,346.912739 C342.427517,340.062605 347.417265,333.573005 351.552911,327.443939 C352.272154,326.182072 352.631776,325.190605 352.631776,324.469539 C352.631776,324.109005 352.54187,323.838605 352.36206,323.658339 C351.822627,323.658339 350.743763,324.559672 349.125466,326.362339 C344.810009,331.950605 339.730356,337.899405 333.886507,344.208739 C328.042659,350.518072 321.434615,356.647139 314.062375,362.595939 C298.778463,374.854072 286.371523,382.605539 276.841555,385.850339 C270.548179,388.013539 264.164899,389.095139 257.691713,389.095139 C251.218526,389.095139 246.093921,387.607939 242.317895,384.633539 C238.54187,381.659139 236.653858,377.107405 236.653858,370.978339 L236.653858,368.274339 L236.653858,368.274339 C236.653858,367.553272 236.743763,366.742072 236.923574,365.840739 C237.642817,360.613005 239.081302,354.213539 241.239031,346.642339 C243.39676,339.071139 245.959063,331.094339 248.92594,322.711939 C251.892817,314.329539 255.174362,306.037272 258.770577,297.835139 C262.366791,289.633005 266.052911,282.377272 269.828937,276.067939 C274.683826,267.955939 279.673574,259.979139 284.798179,252.137539 C289.922785,244.295939 295.092343,236.319139 300.306854,228.207139 C300.486665,227.846605 300.306854,227.215672 299.767422,226.314339 C299.22799,225.413005 298.598653,224.962339 297.87941,224.962339 C297.160167,224.962339 296.620735,225.142605 296.261113,225.503139 C294.822627,227.305805 292.485088,228.477539 289.248495,229.018339 C288.888873,229.198605 287.180672,229.108472 284.123889,228.747939 C281.96616,228.026872 279.808432,227.441005 277.650703,226.990339 C275.492974,226.539672 273.335246,226.314339 271.177517,226.314339 C269.199599,226.314339 267.266634,226.539672 265.378621,226.990339 C263.490608,227.441005 261.737454,227.936739 260.119157,228.477539 C253.106539,231.361805 245.554489,235.643139 237.463006,241.321539 C229.371523,246.999939 220.740608,254.435939 211.570261,263.629539 C191.611271,283.639139 181.631776,300.043405 181.631776,312.842339 C181.631776,319.151672 183.87941,322.306339 188.374678,322.306339 C190.172785,322.306339 192.240608,321.585272 194.578148,320.143139 C205.906224,313.473272 219.481933,303.468472 235.305277,290.128739 C243.216949,283.278605 250.184615,276.969272 256.208274,271.200739 C262.231933,265.432205 267.401492,259.934072 271.716949,254.706339 C272.076571,254.345805 272.346287,254.165539 272.526097,254.165539 C273.964583,254.165539 274.054489,255.157005 272.795813,257.139939 C269.739031,261.826872 266.727201,266.964472 263.760325,272.552739 C260.793448,278.141005 257.781618,284.179939 254.724836,290.669539 C252.207485,296.077539 249.690135,302.296739 247.172785,309.327139 C244.655435,316.357539 242.317895,323.433005 240.160167,330.553539 C238.002438,337.674072 236.249284,344.389005 234.900703,350.698339 C233.552123,357.007672 232.787927,362.055139 232.608116,365.840739 C232.428306,370.527672 233.01269,374.718872 234.361271,378.414339 C235.709851,382.109805 238.092343,384.949005 241.508747,386.931939 C244.385719,388.914872 247.622312,390.582339 251.218526,391.934339 C254.814741,393.286339 258.770577,393.962339 263.086034,393.962339 Z M202.081721,309.711973 C198.820397,309.711973 197.189735,307.548272 197.189735,303.22087 C197.189735,301.057169 197.552104,298.983622 198.276843,297.000229 C200.813428,291.23036 204.210641,285.190028 208.46848,278.879233 C212.72632,272.568438 217.935379,265.987181 224.095658,259.135461 C237.140954,244.891095 247.921442,236.687062 256.437122,234.523361 C258.611338,233.982436 260.694961,233.711973 262.687993,233.711973 C266.311686,233.711973 269.301233,234.568438 271.656634,236.281368 C274.012034,237.994298 275.189735,239.842459 275.189735,241.825852 C275.189735,242.547086 274.917958,243.178165 274.374404,243.71909 C261.510292,259.045306 249.461512,272.07259 238.228062,282.800941 C226.994613,293.529292 216.304717,302.048865 206.158376,308.35966 C204.708899,309.261202 203.350014,309.711973 202.081721,309.711973 Z M371.29774,325 C381.726992,325 398.629571,315.492007 422.005479,296.476021 L423.893533,294.592362 C423.713718,294.412966 423.623811,294.323268 423.623811,294.323268 C423.623811,294.143872 423.533904,293.964476 423.354089,293.78508 C423.174274,293.964476 422.859599,294.143872 422.410062,294.323268 C421.960525,294.502664 421.466035,294.771758 420.926591,295.130551 C400.967162,310.199822 386.581988,317.734458 377.771069,317.734458 C372.916073,317.734458 370.488574,315.402309 370.488574,310.738011 C370.488574,304.279751 374.894034,293.067496 383.704953,277.101243 C387.481061,270.463588 391.077355,264.498668 394.493834,259.206483 C397.910312,253.914298 401.146977,249.384547 404.203826,245.617229 C404.383641,245.437833 404.473548,244.989343 404.473548,244.271758 C404.473548,242.83659 403.664382,241.44627 402.04605,240.100799 C400.427718,238.755329 399.079108,238.172291 398.00022,238.351687 C391.706706,239.966252 388.20032,241.222025 387.481061,242.119005 C381.547177,242.657194 370.30876,249.474245 353.76581,262.57016 C346.932852,268.310835 340.279709,274.05151 333.806381,279.792185 C327.333052,285.53286 321.219353,291.273535 315.465284,297.01421 C312.947878,299.525755 310.969917,301.58881 309.531399,303.203375 C308.092882,304.81794 306.924087,305.984014 306.025013,306.701599 C316.094635,288.403197 325.804627,271.091474 335.154991,254.76643 C344.505354,238.441385 353.675902,222.744227 362.666636,207.674956 C365.543671,207.854352 368.510613,207.988899 371.567462,208.078597 C374.624312,208.168295 377.681161,208.213144 380.738011,208.213144 C450.865734,208.213144 522.072346,191.260213 594.357846,157.354352 C614.13746,148.205151 628.972171,137.082593 638.861978,123.986679 C648.032526,112.146536 652.617801,99.5888099 652.617801,86.3134991 C652.617801,68.9120782 645.245399,53.9325044 630.500595,41.374778 C615.036533,28.4582593 595.796363,22 572.780085,22 C558.934355,22 544.998717,24.5115453 530.973172,29.5346359 C504.72023,38.6838366 478.961777,54.6949378 453.697816,77.5679396 C428.433854,100.440941 403.214845,130.80373 378.040791,168.656306 C360.418953,172.423623 347.202574,178.971581 338.391655,188.300178 C337.852211,189.017762 337.402674,189.735346 337.043045,190.452931 C336.683415,191.170515 336.503601,192.067496 336.503601,193.143872 C336.503601,195.655417 337.492581,198.256661 339.470543,200.947602 C341.448504,203.638544 343.696188,205.253108 346.213593,205.791297 C347.831925,206.150089 349.315396,206.419183 350.664006,206.598579 C352.012616,206.777975 353.136458,206.957371 354.035532,207.136767 C341.088875,229.381883 329.625689,249.69849 319.645975,268.08659 C309.66626,286.474689 301.08011,303.293073 293.887523,318.541741 C293.707708,319.079929 293.617801,319.797513 293.617801,320.694494 C293.617801,323.564831 294.337059,325 295.775577,325 C296.315021,325 296.764557,324.55151 297.124187,323.654529 C298.742519,321.501776 299.7315,320.784192 300.091129,321.501776 C308.182789,311.814387 319.780836,299.705151 334.885269,285.174067 C352.866736,267.952043 366.892281,256.650089 376.961903,251.268206 C378.939864,250.012433 380.738011,249.384547 382.356343,249.384547 C385.053563,249.384547 386.402173,250.64032 386.402173,253.151865 C386.402173,254.587034 386.042544,255.753108 385.323285,256.650089 C369.499594,277.460036 359.879509,294.951155 356.46303,309.123446 C355.563956,313.249556 357.182288,316.927176 361.318026,320.156306 C364.734505,323.385435 368.061076,325 371.29774,325 Z M386.787248,203.243723 C383.198487,203.243723 379.744304,203.153999 376.4247,202.97455 C373.105096,202.795102 369.92007,202.615653 366.869623,202.436204 C393.06758,157.932946 419.983289,121.549738 447.61675,93.2865802 C475.250211,65.0234223 504.139738,44.6111416 534.285332,32.0497381 C546.666558,26.8457281 559.40666,24.2437231 572.505639,24.2437231 C592.602701,24.2437231 610.187631,29.6271817 625.260428,40.394099 C640.333225,50.6226705 647.869623,63.5429712 647.869623,79.1550013 C647.869623,103.021668 629.208065,125.811643 591.884949,147.524926 C574.300019,157.753498 556.087056,166.54648 537.24606,173.903873 C518.405064,181.261267 498.846316,187.36252 478.569815,192.207633 C462.599828,195.796605 447.033576,198.533197 431.87106,200.417407 C416.708544,202.301618 401.680607,203.243723 386.787248,203.243723 Z M358.253969,201.173434 C357.726838,201.173434 356.716502,201.083579 355.222962,200.903869 C353.729422,200.724159 351.752677,200.454594 349.292729,200.095173 C345.427096,199.556043 343.494279,197.758941 343.494279,194.703869 C343.494279,192.727057 344.197122,191.019811 345.602807,189.58213 C349.117018,185.448797 353.465856,181.719811 358.649318,178.395173 C363.832781,175.070536 370.114434,172.329956 377.494279,170.173434 C374.331489,175.205318 371.12477,180.327057 367.874124,185.538652 C364.623478,190.750246 361.41676,195.96184 358.253969,201.173434 Z" id="mah" transform="translate(332.808900, 207.981169) rotate(-4.000000) translate(-332.808900, -207.981169) "></path>
        </g>
    </g>
</svg>