<?xml version="1.0" encoding="UTF-8"?>
<svg width="623px" height="394px" viewBox="0 0 623 394" version="1.1" xmlns="http://www.w3.org/2000/svg" xmlns:xlink="http://www.w3.org/1999/xlink">
    <title>mah copy 2</title>
    <g id="Page-1" stroke="none" stroke-width="1" fill="none" fill-rule="evenodd">
        <path d="M94.5420526,329.484979 C95.2616857,329.484979 96.0712729,329.215534 96.9708143,328.676645 C115.321458,314.665534 138.259762,302.809979 165.785728,293.109979 C191.872427,283.769238 218.139034,277.751645 244.58555,275.057201 C246.204725,274.877571 247.823899,274.742849 249.443073,274.653034 C251.062248,274.563219 252.591468,274.518312 254.030734,274.518312 C266.084589,274.518312 275.529773,276.853497 282.366287,281.523867 C288.842985,285.834979 292.081334,291.134053 292.081334,297.42109 C292.081334,299.397016 291.451655,301.91183 290.192297,304.965534 C288.573122,308.737756 287.088879,311.072942 285.739567,311.97109 C284.390255,312.869238 283.715599,313.677571 283.715599,314.39609 C283.715599,314.934979 284.075416,315.204423 284.795049,315.204423 C285.69459,315.204423 286.863994,314.755349 288.30326,313.857201 C291.541609,312.599793 293.790462,310.174793 295.04982,306.582201 C295.769453,304.426645 296.12927,302.09146 296.12927,299.576645 C296.12927,291.134053 291.181792,284.038682 281.286837,278.290534 C276.429314,275.41646 270.852158,273.485442 264.555368,272.497479 C258.258579,271.509516 251.242156,271.195164 243.506101,271.554423 C233.970962,272.093312 223.401351,273.620164 211.797268,276.134979 C200.193184,278.649793 187.37472,282.062756 173.341875,286.373867 C153.372057,292.660904 136.730542,298.858127 123.41733,304.965534 C122.33788,305.324793 121.438339,305.684053 120.718706,306.043312 C119.999073,306.402571 119.27944,306.582201 118.559807,306.582201 C117.300449,306.582201 116.67077,305.863682 116.67077,304.426645 C116.67077,302.630349 117.570311,300.474793 119.369394,297.959979 C125.666183,287.72109 131.198363,278.155812 135.965932,269.264145 C140.733501,260.372479 144.916368,251.974793 148.514534,244.07109 C149.593983,242.813682 150.538502,241.690997 151.348089,240.703034 C152.157676,239.715071 152.922286,238.86183 153.641919,238.143312 C154.361553,234.37109 153.192149,232.484979 150.133708,232.484979 C149.234167,232.484979 148.244671,232.754423 147.165222,233.293312 C137.9899,237.604423 127.960014,243.666923 117.075564,251.480812 C106.191113,259.294701 94.4520985,268.859979 81.8585196,280.176645 C81.1388865,280.895164 80.2393451,281.254423 79.1598955,281.254423 C77.5407211,281.254423 76.7311339,280.26646 76.7311339,278.290534 C76.7311339,276.853497 77.2708587,275.326645 78.3503083,273.709979 C82.3082902,265.985904 85.3217538,259.788682 87.3906989,255.118312 C89.459644,250.447942 90.4941165,247.214608 90.4941165,245.418312 C90.4941165,243.262756 89.5945752,241.915534 87.7954925,241.376645 C82.7580609,239.759979 74.5722346,242.454423 63.2380136,249.459979 C47.7659023,258.980349 34.6325986,269.309053 23.8381023,280.44609 C22.7586527,281.523867 21.7691572,282.062756 20.8696159,282.062756 C18.8906249,282.062756 19.0705332,279.997016 21.4093407,275.865534 C26.8065888,266.165534 33.0134241,257.273867 40.0298467,249.190534 C46.1467279,241.825719 49.8348474,237.784053 51.0942053,237.065534 C52.5334715,235.987756 52.893288,235.179423 52.1736549,234.640534 C51.2741136,234.101645 49.8348474,234.236367 47.8558565,235.044701 C45.8768655,235.853034 44.3476452,236.706275 43.2681956,237.604423 C40.3896632,240.478497 36.881452,244.520164 32.7435617,249.729423 C28.6056715,254.938682 23.9280565,261.315534 18.7107166,268.859979 C13.4933768,276.404423 8.9057159,283.185442 4.94773395,289.203034 C0.989751998,295.220627 -2.24859687,300.654423 -4.76731266,305.504423 C-6.56639536,308.378497 -7.55589085,310.444238 -7.73579912,311.701645 C-7.91570739,312.599793 -7.91570739,313.767386 -7.73579912,315.204423 C-7.55589085,316.102571 -7.19607431,316.46183 -6.6563495,316.282201 C-6.29653295,315.922942 -5.57689987,315.473867 -4.49745025,314.934979 C-3.41800063,314.39609 -1.88878033,313.767386 0.0902106461,313.048867 C3.86828433,311.61183 6.02718357,310.444238 6.56690838,309.54609 C9.62534898,305.055349 12.4139272,301.148404 14.932643,297.825256 C17.4513587,294.502108 19.7002121,291.762756 21.6792031,289.607201 C29.2353505,280.984979 38.230764,272.362756 48.6654437,263.740534 C53.3430587,259.609053 57.3010407,256.420627 60.5393895,254.175256 C63.7777384,251.929886 66.2964542,250.358127 68.0955369,249.459979 C69.7147113,248.92109 70.8841151,248.651645 71.6037482,248.651645 C74.3023722,248.651645 75.6516842,250.268312 75.6516842,253.501645 C75.6516842,255.297942 75.2918677,257.004423 74.5722346,258.62109 C72.4133354,265.447016 69.3998718,272.497479 65.531844,279.772479 C61.6638162,287.047479 57.0311782,294.63683 51.6339301,302.540534 C50.914297,303.438682 51.1391824,304.51646 52.3085861,305.773867 C53.4779899,307.031275 54.6024166,307.390534 55.6818662,306.851645 C56.5814076,306.312756 57.7508113,305.72896 59.1900775,305.100256 C60.6293437,304.471553 62.5183805,303.618312 64.857188,302.540534 C66.836179,301.822016 68.3204222,301.103497 69.3099177,300.384979 C70.2994132,299.66646 70.9740692,299.127571 71.3338857,298.768312 C78.8900331,287.990534 96.1612271,271.823867 123.147468,250.268312 C125.306367,248.651645 127.10545,247.843312 128.544716,247.843312 C131.063432,247.843312 132.322789,249.370164 132.322789,252.423867 C132.322789,254.759053 131.69311,257.184053 130.433753,259.698867 C124.136963,276.224793 113.612329,293.559053 98.8598511,311.701645 C98.140218,314.21646 98.0502639,316.372016 98.5899887,318.168312 L92.113291,324.634979 C91.5735662,325.173867 91.3037038,325.802571 91.3037038,326.52109 C91.3037038,328.497016 92.3831534,329.484979 94.5420526,329.484979 Z M242.215304,388.665798 C245.092276,388.665798 247.789436,388.440465 250.306787,387.989798 C252.824137,387.539132 255.341487,386.863132 257.858837,385.961798 C262.893537,384.159132 268.422717,381.274865 274.446377,377.308998 C280.470036,373.343132 287.257891,368.295665 294.809941,362.166598 C302.901424,355.316465 309.869089,348.466332 315.712938,341.616198 C321.556787,334.766065 326.546534,328.276465 330.682181,322.147398 C331.401424,320.885532 331.761045,319.894065 331.761045,319.172998 C331.761045,318.812465 331.67114,318.542065 331.491329,318.361798 C330.951897,318.361798 329.873033,319.263132 328.254736,321.065798 C323.939279,326.654065 318.859626,332.602865 313.015777,338.912198 C307.171929,345.221532 300.563884,351.350598 293.191645,357.299398 C277.907733,369.557532 265.500793,377.308998 255.970824,380.553798 C249.677449,382.716998 243.294168,383.798598 236.820982,383.798598 C230.347796,383.798598 225.22319,382.311398 221.447165,379.336998 C217.67114,376.362598 215.783127,371.810865 215.783127,365.681798 L215.783127,362.977798 L215.783127,362.977798 C215.783127,362.256732 215.873033,361.445532 216.052843,360.544198 C216.772086,355.316465 218.210572,348.916998 220.368301,341.345798 C222.52603,333.774598 225.088332,325.797798 228.055209,317.415398 C231.022086,309.032998 234.303632,300.740732 237.899847,292.538598 C241.496061,284.336465 245.182181,277.080732 248.958206,270.771398 C253.813096,262.659398 258.802843,254.682598 263.927449,246.840998 C269.052055,238.999398 274.221613,231.022598 279.436124,222.910598 C279.615935,222.550065 279.436124,221.919132 278.896692,221.017798 C278.35726,220.116465 277.727922,219.665798 277.008679,219.665798 C276.289436,219.665798 275.750004,219.846065 275.390383,220.206598 C273.951897,222.009265 271.614358,223.180998 268.377765,223.721798 C268.018143,223.902065 266.309941,223.811932 263.253159,223.451398 C261.09543,222.730332 258.937701,222.144465 256.779973,221.693798 C254.622244,221.243132 252.464515,221.017798 250.306787,221.017798 C248.328869,221.017798 246.395903,221.243132 244.507891,221.693798 C242.619878,222.144465 240.866724,222.640198 239.248427,223.180998 C232.235809,226.065265 224.683758,230.346598 216.592276,236.024998 C208.500793,241.703398 199.869878,249.139398 190.699531,258.332998 C170.740541,278.342598 160.761045,294.746865 160.761045,307.545798 C160.761045,313.855132 163.008679,317.009798 167.503948,317.009798 C169.302055,317.009798 171.369878,316.288732 173.707418,314.846598 C185.035493,308.176732 198.611203,298.171932 214.434547,284.832198 C222.346219,277.982065 229.313884,271.672732 235.337544,265.904198 C241.361203,260.135665 246.530761,254.637532 250.846219,249.409798 C251.20584,249.049265 251.475556,248.868998 251.655367,248.868998 C253.093853,248.868998 253.183758,249.860465 251.925083,251.843398 C248.868301,256.530332 245.856471,261.667932 242.889594,267.256198 C239.922717,272.844465 236.910888,278.883398 233.854105,285.372998 C231.336755,290.780998 228.819405,297.000198 226.302055,304.030598 C223.784705,311.060998 221.447165,318.136465 219.289436,325.256998 C217.131708,332.377532 215.378553,339.092465 214.029973,345.401798 C212.681392,351.711132 211.917197,356.758598 211.737386,360.544198 C211.557575,365.231132 212.14196,369.422332 213.490541,373.117798 C214.839121,376.813265 217.221613,379.652465 220.638017,381.635398 C223.514989,383.618332 226.751582,385.285798 230.347796,386.637798 C233.944011,387.989798 237.899847,388.665798 242.215304,388.665798 Z M181.21099,304.415433 C177.949666,304.415433 176.319004,302.251732 176.319004,297.92433 C176.319004,295.760628 176.681374,293.687082 177.406112,291.703689 C179.942698,285.933819 183.33991,279.893487 187.59775,273.582693 C191.85559,267.271898 197.064649,260.69064 203.224928,253.83892 C216.270224,239.594555 227.050712,231.390522 235.566391,229.226821 C237.740607,228.685895 239.824231,228.415433 241.817262,228.415433 C245.440956,228.415433 248.430503,229.271898 250.785903,230.984828 C253.141304,232.697758 254.319004,234.545919 254.319004,236.529312 C254.319004,237.250545 254.047227,237.881625 253.503673,238.42255 C240.639562,253.748766 228.590781,266.77605 217.357332,277.504401 C206.123882,288.232752 195.433987,296.752325 185.287646,303.06312 C183.838168,303.964662 182.479283,304.415433 181.21099,304.415433 Z M350.42701,319.70346 C360.856261,319.70346 377.758841,310.195467 401.134749,291.179481 L403.022803,289.295822 C402.842988,289.116426 402.753081,289.026728 402.753081,289.026728 C402.753081,288.847332 402.663173,288.667936 402.483359,288.48854 C402.303544,288.667936 401.988868,288.847332 401.539332,289.026728 C401.089795,289.206124 400.595305,289.475218 400.055861,289.83401 C380.096432,304.903282 365.711258,312.437918 356.900338,312.437918 C352.045342,312.437918 349.617844,310.105769 349.617844,305.44147 C349.617844,298.983211 354.023304,287.770955 362.834223,271.804703 C366.610331,265.167048 370.206624,259.202128 373.623103,253.909943 C377.039582,248.617758 380.276246,244.088007 383.333096,240.320689 C383.51291,240.141293 383.602818,239.692803 383.602818,238.975218 C383.602818,237.540049 382.793652,236.14973 381.17532,234.804259 C379.556988,233.458788 378.208378,232.875751 377.129489,233.055147 C370.835976,234.669712 367.32959,235.925485 366.610331,236.822465 C360.676447,237.360653 349.438029,244.177705 332.895079,257.27362 C326.062122,263.014295 319.408979,268.754969 312.93565,274.495644 C306.462322,280.236319 300.348623,285.976994 294.594553,291.717669 C292.077148,294.229215 290.099186,296.29227 288.660669,297.906835 C287.222152,299.521399 286.053356,300.687474 285.154283,301.405058 C295.223905,283.106657 304.933897,265.794934 314.28426,249.46989 C323.634623,233.144845 332.805172,217.447687 341.795906,202.378415 C344.67294,202.557811 347.639883,202.692358 350.696732,202.782057 C353.753582,202.871755 356.810431,202.916604 359.867281,202.916604 C429.995004,202.916604 501.201616,185.963673 573.487115,152.057811 C593.26673,142.908611 608.10144,131.786053 617.991248,118.690138 C627.161796,106.849996 631.74707,94.2922697 631.74707,81.0169588 C631.74707,63.6155379 624.374669,48.6359642 609.629865,36.0782377 C594.165803,23.161719 574.925633,16.7034597 551.909354,16.7034597 C538.063624,16.7034597 524.127987,19.215005 510.102442,24.2380956 C483.849499,33.3872963 458.091047,49.3983976 432.827085,72.2713993 C407.563123,95.1444011 382.344115,125.50719 357.17006,163.359765 C339.548222,167.127083 326.331844,173.675041 317.520924,183.003637 C316.98148,183.721222 316.531944,184.438806 316.172314,185.15639 C315.812685,185.873975 315.63287,186.770955 315.63287,187.847332 C315.63287,190.358877 316.621851,192.96012 318.599813,195.651062 C320.577774,198.342003 322.825457,199.956568 325.342863,200.494756 C326.961195,200.853549 328.444666,201.122643 329.793276,201.302039 C331.141886,201.481435 332.265728,201.660831 333.164801,201.840227 C320.218145,224.085342 308.754959,244.40195 298.775245,262.790049 C288.79553,281.178149 280.209379,297.996533 273.016792,313.2452 C272.836978,313.783389 272.74707,314.500973 272.74707,315.397954 C272.74707,318.268291 273.466329,319.70346 274.904846,319.70346 C275.44429,319.70346 275.893827,319.254969 276.253456,318.357989 C277.871788,316.205236 278.860769,315.487652 279.220399,316.205236 C287.312059,306.517847 298.910106,294.408611 314.014538,279.877527 C331.996006,262.655502 346.021551,251.353549 356.091172,245.971666 C358.069134,244.715893 359.867281,244.088007 361.485613,244.088007 C364.182833,244.088007 365.531443,245.343779 365.531443,247.855325 C365.531443,249.290493 365.171814,250.456568 364.452555,251.353549 C348.628863,272.163495 339.008778,289.654614 335.592299,303.826906 C334.693226,307.953016 336.311558,311.630636 340.447296,314.859765 C343.863774,318.088895 347.190346,319.70346 350.42701,319.70346 Z M365.916518,197.947183 C362.327756,197.947183 358.873574,197.857459 355.55397,197.67801 C352.234366,197.498561 349.04934,197.319113 345.998893,197.139664 C372.19685,152.636406 399.112558,116.253198 426.74602,87.99004 C454.379481,59.7268821 483.269008,39.3146014 513.414602,26.7531979 C525.795828,21.5491878 538.53593,18.9471828 551.634908,18.9471828 C571.731971,18.9471828 589.316901,24.3306415 604.389698,35.0975588 C619.462495,45.3261302 626.998893,58.2464309 626.998893,73.858461 C626.998893,97.7251277 608.337335,120.515103 571.014219,142.228386 C553.429289,152.456957 535.216326,161.24994 516.37533,168.607333 C497.534334,175.964727 477.975585,182.06598 457.699085,186.911093 C441.729097,190.500065 426.162846,193.236657 411.00033,195.120867 C395.837814,197.005078 380.809876,197.947183 365.916518,197.947183 Z M337.383239,195.876894 C336.856107,195.876894 335.845771,195.787039 334.352231,195.607329 C332.858691,195.427619 330.881947,195.158053 328.421999,194.798633 C324.556366,194.259503 322.623549,192.462401 322.623549,189.407329 C322.623549,187.430517 323.326392,185.723271 324.732076,184.28559 C328.246288,180.152256 332.595125,176.423271 337.778588,173.098633 C342.96205,169.773995 349.243704,167.033416 356.623549,164.876894 C353.460758,169.908778 350.25404,175.030517 347.003394,180.242111 C343.752748,185.453705 340.54603,190.6653 337.383239,195.876894 Z" id="mah-copy-2" fill="#ED1249" fill-rule="nonzero" transform="translate(311.938170, 202.684629) rotate(-4.000000) translate(-311.938170, -202.684629) "></path>
    </g>
</svg>